<svg width="341" height="347" xmlns="http://www.w3.org/2000/svg">

 <g>
  <title>Layer 1</title>
  <path id="svg_1" d="m202.18258,11.63254c54.811,9.699 98.097,46.549 118.559,94.246l2.555,-0.133c-20.623,-48.811 -64.743,-86.584 -120.692,-96.486c-81.311,-14.389 -159.382,35.037 -182.739,112.192l2.563,-0.132c23.319,-75.524 99.952,-123.81 179.754,-109.687zm117.345,210.064c-25.804,71.428 -100.105,116.27 -177.38,102.594c-52.17,-9.232 -93.9,-43.069 -115.445,-87.437l-2.601,0.136c21.737,45.487 64.308,80.235 117.626,89.671c78.793,13.945 154.545,-32.031 180.419,-105.1l-2.619,0.136z" fill="#FFF"/>
  <path id="svg_2" d="m197.046,18.743c47.448,8.396 85.836,38.12 107.144,77.538l1.467,-0.079c-21.434,-40.033 -60.296,-70.256 -108.38,-78.765c-72.492,-12.829 -142.29,27.818 -168.803,93.527l1.479,-0.08c26.463,-64.793 95.441,-104.822 167.093,-92.141zm111.244,202.361c-25.245,67.079 -95.533,108.975 -168.609,96.043c-48.932,-8.66 -88.271,-39.98 -109.131,-81.248l-1.439,0.077c20.973,41.882 60.775,73.708 110.338,82.479c73.916,13.08 144.996,-29.446 170.283,-97.426l-1.442,0.075z" fill="#FFF"/>
  <text transform="matrix(1.88121 0 0 2.27382 -64.5342 -253.544)" stroke="null" xml:space="preserve" text-anchor="start" font-family="'Brygada 1918'" font-size="24" stroke-width="0" id="svg_6" y="193.6991" x="64.48722" fill="#ffffff">Coffe Shop</text>
  <text transform="matrix(1.0378 0 0 1.25108 -6.91341 -32.3583)" stroke="null" xml:space="preserve" text-anchor="start" font-family="'Brygada 1918'" font-size="20" id="svg_7" y="112.37939" x="174.58762" stroke-width="0" fill="#ffffff">Since 1939</text>
 </g>
</svg>